

<svg xmlns="http://www.w3.org/2000/svg" viewBox="128 140 768 768" width="768" height="768" class="size-6"><path d="M 210 170
   C 170 250, 175 470, 220 640
   C 265 780, 390 870, 512 880
   C 634 870, 759 780, 804 640
   C 849 470, 854 250, 814 170" fill="none" stroke="currentColor" stroke-width="52" stroke-linecap="round" stroke-linejoin="round"></path><path d="M 225 282 C 295 232, 375 232, 442 275" fill="none" stroke="currentColor" stroke-width="52" stroke-linecap="round" stroke-linejoin="round"></path><path d="M 582 275 C 649 232, 729 232, 799 282" fill="none" stroke="currentColor" stroke-width="52" stroke-linecap="round" stroke-linejoin="round"></path><path d="M 255 380 C 300 338, 365 338, 408 378" fill="none" stroke="currentColor" stroke-width="52" stroke-linecap="round" stroke-linejoin="round"></path><path d="M 616 378 C 659 338, 724 338, 769 380" fill="none" stroke="currentColor" stroke-width="52" stroke-linecap="round" stroke-linejoin="round"></path><path d="M 498 299
   C 505 387, 505 462, 505 530
   C 505 552, 518 540, 545 540" fill="none" stroke="currentColor" stroke-width="52" stroke-linecap="round" stroke-linejoin="round"></path><path d="M 430 605 C 470 640, 554 640, 594 605" fill="none" stroke="currentColor" stroke-width="52" stroke-linecap="round" stroke-linejoin="round"></path></svg>